PathFileType	4	(X/Y/Z)	s03c0202.trc
DataRate	CameraRate	NumFrames	NumMarkers	Units	OrigDataRate	OrigDataStartFrame	OrigNumFrames
200	200	4	52	mm	200	750	2000
Frame#	Time	racr			lacr			c7			jug			rlel			rdr			llel			ldr			s2			lic			ric			lasi			rasi			rpsi			lpsi			rgt			lgt			rth1			rth2			rth3			rth4			rlfc			rmfc			rsh1			rsh2			rsh3			rsh4			rlmal			rmmal			rcal			rtoe			rmt5			rmt1			lth1			lth2			lth4			lth3			llfc			lmfc			lsh1			lsh2			lsh3			lsh4			llmal			lmmal			lcal			ltoe			lmt1			lmt5			SBIKE			LBIKE			RBIKE			
		X1	Y1	Z1	X2	Y2	Z2	X3	Y3	Z3	X4	Y4	Z4	X5	Y5	Z5	X6	Y6	Z6	X7	Y7	Z7	X8	Y8	Z8	X9	Y9	Z9	X10	Y10	Z10	X11	Y11	Z11	X12	Y12	Z12	X13	Y13	Z13	X14	Y14	Z14	X15	Y15	Z15	X16	Y16	Z16	X17	Y17	Z17	X18	Y18	Z18	X19	Y19	Z19	X20	Y20	Z20	X21	Y21	Z21	X22	Y22	Z22	X23	Y23	Z23	X24	Y24	Z24	X25	Y25	Z25	X26	Y26	Z26	X27	Y27	Z27	X28	Y28	Z28	X29	Y29	Z29	X30	Y30	Z30	X31	Y31	Z31	X32	Y32	Z32	X33	Y33	Z33	X34	Y34	Z34	X35	Y35	Z35	X36	Y36	Z36	X37	Y37	Z37	X38	Y38	Z38	X39	Y39	Z39	X40	Y40	Z40	X41	Y41	Z41	X42	Y42	Z42	X43	Y43	Z43	X44	Y44	Z44	X45	Y45	Z45	X46	Y46	Z46	X47	Y47	Z47	X48	Y48	Z48	X49	Y49	Z49	X50	Y50	Z50	X51	Y51	Z51	X52	Y52	Z52	
750	3.7500	507.001826	1362.416671	-115.886183	462.988006	1412.183654	-419.873498	422.924459	1470.872822	-247.386709	422.388604	1297.119558	-274.983043	548.510743	1174.980556	86.577864	725.141200	990.590490	-32.075074	482.628663	1171.396400	-562.213548	700.413913	976.544045	-487.394232	-103.713325	1195.655278	-227.779861	46.686564	1248.804942	-427.648144	70.435603	1225.757584	-56.252456	73.857899	1172.416139	-391.814817	97.028892	1175.713946	-98.292153	-76.539778	1245.886123	-185.160329	-75.613101	1247.991776	-266.883941	38.781352	1142.025145	-43.067241	-10.632659	1103.836578	-433.928494	169.948876	1064.483019	-34.990618	258.649802	1063.341297	-40.030684	333.730170	1021.365246	-43.988931	267.464174	1096.143994	-55.122402	441.411228	948.802734	-71.332476	437.435442	927.854298	-199.214627	337.379053	822.366324	-45.726498	288.746362	749.869340	-62.854885	210.730020	708.554910	-61.159979	308.097050	732.090866	-90.408369	107.773033	627.966726	-78.212473	134.950913	623.927270	-165.437950	29.286933	617.326884	-116.931151	286.223150	441.738242	-120.610559	180.218412	496.012951	-52.623925	207.169837	491.506086	-165.180507	63.210615	954.987656	-459.334845	122.991067	893.352270	-469.563611	155.019161	912.031651	-473.456261	149.190111	808.884909	-455.230211	233.106731	709.532892	-444.549285	252.673908	699.534124	-325.504809	199.931976	539.803078	-461.182913	217.838961	458.275737	-444.961156	190.384151	372.544837	-433.047115	253.354495	458.765337	-427.422784	178.001756	244.509855	-411.417723	215.825196	263.535495	-326.933629	123.503599	195.861955	-360.649469	432.059004	207.615387	-365.750362	340.367259	200.534565	-323.312933	313.895597	168.753685	-437.079584	-217.226996	944.340106	-231.221691	-11.946656	80.646758	-435.542460	-11.977712	81.012542	-35.089165	
751	3.7550	504.464679	1363.424853	-111.587680	466.409159	1412.331898	-416.707497	422.883030	1471.700786	-244.682237	422.843385	1297.688883	-271.238944	545.660259	1173.873055	88.361930	724.551878	990.790796	-31.023782	484.747695	1172.345833	-561.717236	701.713490	976.013500	-488.252557	-103.984059	1197.061260	-230.579604	49.222628	1249.295064	-430.788317	68.726842	1227.422899	-58.284776	74.886233	1172.958142	-394.057362	94.711573	1178.761557	-96.686368	-77.044945	1246.961629	-189.241821	-75.702568	1249.328380	-271.329439	38.015906	1145.591066	-45.966773	-10.398086	1103.702647	-436.157891	170.368272	1069.969885	-37.003144	259.002225	1070.068688	-42.450878	334.757017	1029.353759	-46.553857	267.428790	1102.896779	-58.387981	443.829586	958.855118	-73.755503	440.318164	937.028763	-201.739608	341.711464	831.207193	-47.756535	294.185950	757.851845	-64.344771	216.785776	715.502680	-62.288252	313.702652	740.180226	-91.831871	115.008113	632.726818	-78.597948	142.457861	629.270747	-166.702108	36.371451	620.142500	-118.363333	296.050569	448.805358	-121.109980	189.538619	501.627140	-52.957200	216.324838	497.224130	-165.552206	61.373711	955.088211	-461.971563	120.265968	892.229711	-471.902529	152.597671	910.373558	-475.926231	145.174370	807.384155	-457.528964	227.658542	706.904932	-446.409112	247.580887	696.741088	-327.292313	193.266921	537.435679	-462.369309	210.816882	455.870792	-446.217958	182.956583	370.341459	-433.799154	246.487911	456.119606	-428.938766	170.152705	242.389600	-411.655095	208.735608	260.722745	-327.793130	115.188089	195.214837	-360.775824	423.818735	200.586954	-365.701602	331.994473	195.369242	-323.279656	304.965318	163.817716	-437.029253	-217.226307	944.342248	-231.229483	-11.936383	80.628188	-435.571645	-11.990439	81.134275	-35.148669	
752	3.7600	501.780995	1364.480319	-107.317571	469.812842	1412.329629	-413.455257	422.824458	1472.590742	-242.084002	424.006309	1298.318293	-267.715445	542.757423	1172.646452	90.393033	723.954519	991.004728	-30.134272	486.968211	1173.285574	-561.417619	702.897007	975.628969	-489.358549	-103.416897	1197.682716	-235.413344	51.655990	1249.841331	-433.428911	67.280683	1228.662112	-60.897588	75.805069	1173.560321	-396.265926	92.572329	1181.593507	-95.213306	-77.593542	1248.185624	-193.195178	-75.715748	1250.304094	-275.419520	37.472002	1149.238735	-48.509221	-10.224178	1103.939644	-438.600728	170.634743	1075.257418	-39.031841	259.279366	1076.573584	-44.848348	335.445582	1036.951069	-48.674221	267.075050	1109.356660	-61.092024	445.727406	967.913148	-75.069462	442.905175	945.794255	-204.244087	345.869530	839.747742	-49.833369	299.515181	765.492533	-65.768613	222.703131	721.900674	-63.464441	319.196201	747.671424	-93.318078	122.416723	636.963887	-79.071373	149.409526	633.555403	-167.376940	43.975780	623.321047	-117.644353	306.139719	455.461343	-121.699826	198.937201	506.696415	-53.280878	225.603775	502.769871	-165.721176	59.774859	955.140974	-464.263330	117.772318	891.382105	-474.363830	150.339041	909.143959	-478.427031	141.493924	806.344833	-459.956328	222.717683	704.815335	-448.393755	243.014943	694.505373	-329.182053	186.764691	535.635052	-463.685303	203.867109	453.984909	-447.553999	175.456957	368.645565	-434.550303	239.717093	453.904135	-430.477454	162.058525	240.852626	-411.912185	201.538687	258.575220	-328.626376	106.683755	195.188921	-360.867404	415.245386	194.239574	-365.684093	323.435471	190.829959	-323.263376	295.731368	159.573521	-437.011101	-217.225618	944.344390	-231.237275	-11.925713	80.653079	-435.636913	-11.986567	81.245436	-35.242490	
753	3.7650	499.001354	1365.587666	-103.168270	473.156325	1412.224230	-410.182981	422.713975	1473.405342	-239.525860	424.822019	1298.881128	-264.215810	539.413148	1170.907609	92.799298	723.334989	991.247451	-29.273170	489.296656	1174.357278	-561.324391	704.201228	975.259885	-490.403525	-103.090456	1198.419654	-240.091261	54.002152	1250.607958	-436.031860	65.869201	1230.147940	-62.763447	76.542874	1174.196544	-398.079395	90.606144	1184.215813	-93.868144	-78.195484	1249.618889	-196.883901	-75.700791	1251.294637	-278.862640	36.913081	1153.077441	-50.948550	-9.980100	1104.349833	-440.926397	170.672326	1080.575476	-41.094071	259.423400	1082.967128	-46.955767	336.091439	1044.083374	-50.869171	266.584413	1115.667846	-63.832551	447.458965	976.849181	-77.494965	445.026449	954.033274	-206.849807	349.854149	847.778718	-51.952204	305.003692	772.614502	-66.939464	228.655225	727.887443	-64.618920	324.900873	755.337661	-94.080895	130.006794	640.332276	-79.522823	156.292614	636.962644	-168.099857	51.514614	625.420198	-116.785693	316.637984	461.553427	-122.448925	208.507524	511.079300	-53.542540	235.024641	507.483693	-166.210903	58.414549	955.440118	-466.505785	115.570304	890.932837	-476.847807	148.327463	908.390929	-481.013120	138.217247	805.620827	-462.555195	218.350754	703.118560	-450.585613	238.973074	693.000101	-331.213515	180.623856	534.420174	-465.174508	197.064690	452.594830	-448.918146	167.972005	367.660716	-435.346599	233.070132	452.263313	-432.140844	153.726432	240.031147	-412.154834	194.264092	257.109048	-329.427076	98.017707	195.776302	-360.915607	406.477234	188.359311	-365.653713	314.570415	187.038752	-323.409052	286.185046	155.957683	-436.988578	-217.224929	944.346471	-231.245051	-11.927794	80.658622	-435.695617	-11.716569	81.056025	-35.413449	
